Coordinates
version=1
nRows=28
nColumns=23
inDegrees=yes

Units are S.I. units (second, meters, Newtons, ...)
Angles are in degrees.

endheader
time	pelvis_tilt	pelvis_list	pelvis_rotation	pelvis_tx	pelvis_ty	pelvis_tz	hip_flexion_r	hip_adduction_r	hip_rotation_r	knee_angle_r	knee_angle_r_beta	ankle_angle_r	subtalar_angle_r	mtp_angle_r	hip_flexion_l	hip_adduction_l	hip_rotation_l	knee_angle_l	knee_angle_l_beta	ankle_angle_l	subtalar_angle_l	mtp_angle_l
    122.00000000	    -16.65289664	      3.54813506	     -1.01184203	      0.04436356	      1.22077844	      0.26516819	     63.75822165	     -3.92867577	      4.38658350	     93.78319303	      1.63682550	      8.74278383	      0.00000000	      0.00000000	     72.45098083	     -4.89862171	     -4.68475574	     70.24895883	      1.22607563	     15.05937601	      0.00000000	      0.00000000
    122.00888900	    -16.51757524	      3.25914594	     -1.25489767	      0.04475205	      1.22065723	      0.26520976	     64.94994493	     -3.60057896	      4.35450949	     96.27056778	      1.68023838	      9.39418064	      0.00000000	      0.00000000	     70.32161554	     -5.34617157	     -5.22413313	     67.22331845	      1.17326824	     14.41804213	      0.00000000	      0.00000000
    122.01777800	    -16.42536631	      2.96871182	     -1.48003290	      0.04508188	      1.22053616	      0.26521921	     66.23470541	     -3.29484905	      4.29704135	     98.66805099	      1.72208236	     10.02416327	      0.00000000	      0.00000000	     68.22507894	     -5.75759721	     -5.77991524	     64.21912160	      1.12083511	     13.65280542	      0.00000000	      0.00000000
    122.02666700	    -16.39350266	      2.68014925	     -1.67501226	      0.04535763	      1.22041262	      0.26518507	     67.62239776	     -3.01925414	      4.22000309	    100.96843801	      1.76223168	     10.62155503	      0.00000000	      0.00000000	     66.19394407	     -6.11670538	     -6.33421490	     61.24651774	      1.06895339	     12.75098736	      0.00000000	      0.00000000
    122.03555600	    -16.43834710	      2.39339889	     -1.80228284	      0.04562154	      1.22029392	      0.26500854	     69.11726592	     -2.83009644	      4.10117133	    103.16580172	      1.80058292	     11.17266849	      0.00000000	      0.00000000	     64.26125056	     -6.38192709	     -6.85909986	     58.32175968	      1.01790673	     11.73565619	      0.00000000	      0.00000000
    122.04444400	    -16.50537189	      2.14964835	     -1.93760308	      0.04576082	      1.22022775	      0.26497597	     70.69126534	     -2.62849705	      4.02183777	    105.24270495	      1.83683172	     11.73740034	      0.00000000	      0.00000000	     62.38321943	     -6.62157726	     -7.40138700	     55.48803280	      0.96844887	     10.53837515	      0.00000000	      0.00000000
    122.05333300	    -16.61132994	      1.91558732	     -2.05574610	      0.04589275	      1.22026650	      0.26491327	     72.31350805	     -2.45485906	      3.93335930	    107.17866865	      1.87062066	     12.28468291	      0.00000000	      0.00000000	     60.58326989	     -6.82460515	     -7.95124577	     52.74748822	      0.92061734	      9.21030747	      0.00000000	      0.00000000
    122.06222200	    -16.80937199	      1.47200981	     -2.12295457	      0.04606629	      1.22041065	      0.26464115	     73.96342820	     -2.27146882	      3.56974394	    108.86308446	      1.90001926	     12.66476055	      0.00000000	      0.00000000	     58.97369595	     -7.07842821	     -8.21936313	     50.17466632	      0.87571313	      8.22597297	      0.00000000	      0.00000000
    122.07111100	    -16.90375007	      1.51742548	     -2.21753057	      0.04609791	      1.22058575	      0.26472992	     75.68036213	     -2.24384232	      3.73831082	    110.61643314	      1.93062097	     13.32238468	      0.00000000	      0.00000000	     57.24051600	     -7.08021852	     -9.02243763	     47.64577140	      0.83157559	      6.30599072	      0.00000000	      0.00000000
    122.08000000	    -17.05493574	      1.35512812	     -2.28400861	      0.04616097	      1.22086263	      0.26463565	     77.37020630	     -2.17557082	      3.65689284	    112.10555853	      1.95661111	     13.81930730	      0.00000000	      0.00000000	     55.68542987	     -7.14703033	     -9.50069942	     45.34613081	      0.79143929	      4.80048111	      0.00000000	      0.00000000
    122.08888900	    -17.19961209	      1.20579139	     -2.35523450	      0.04623116	      1.22120831	      0.26454868	     79.03787454	     -2.11907085	      3.57088425	    113.42900536	      1.97970961	     14.30515561	      0.00000000	      0.00000000	     54.21288744	     -7.20767671	     -9.95662223	     43.25138702	      0.75487911	      3.29904956	      0.00000000	      0.00000000
    122.09777800	    -17.33767601	      1.01266847	     -2.40582332	      0.04627636	      1.22155851	      0.26442027	     80.66813126	     -2.07902656	      3.41765546	    114.57920995	      1.99978447	     14.74730291	      0.00000000	      0.00000000	     52.85520977	     -7.27910385	    -10.28457543	     41.41765327	      0.72287442	      2.00492612	      0.00000000	      0.00000000
    122.10666700	    -17.43309611	      0.94490358	     -2.49643693	      0.04630713	      1.22198993	      0.26437193	     82.25520370	     -2.05192508	      3.37407633	    115.59221279	      2.01746470	     15.25301500	      0.00000000	      0.00000000	     51.52426930	     -7.29105413	    -10.69542816	     39.76551745	      0.69403921	      0.50625525	      0.00000000	      0.00000000
    122.11555600	    -17.51857425	      0.80890398	     -2.56476861	      0.04631961	      1.22239196	      0.26427109	     83.77200417	     -2.03286966	      3.24704236	    116.41626486	      2.03184712	     15.69464313	      0.00000000	      0.00000000	     50.32189055	     -7.33833982	    -10.94096765	     38.42321034	      0.67061153	     -0.67697754	      0.00000000	      0.00000000
    122.12444400	    -17.57440867	      0.69062642	     -2.63916584	      0.04627755	      1.22278274	      0.26423077	     85.21344556	     -2.01299550	      3.12419385	    117.07175473	      2.04328758	     16.12367025	      0.00000000	      0.00000000	     49.21594418	     -7.38681238	    -11.10472538	     37.35850967	      0.65202900	     -1.73649541	      0.00000000	      0.00000000
    122.13333300	    -17.45346883	      0.31163930	     -2.67403538	      0.04592006	      1.22299607	      0.26409980	     86.42213504	     -1.97478571	      2.72879273	    117.58387805	      2.05222582	     16.13578826	      0.00000000	      0.00000000	     48.23582091	     -7.64288016	    -10.93203840	     36.98602633	      0.64552794	     -1.84288480	      0.00000000	      0.00000000
    122.14222200	    -17.67066252	      0.42779963	     -2.76156282	      0.04612914	      1.22338151	      0.26414005	     87.90229777	     -2.01347113	      2.78929622	    117.85397066	      2.05693982	     16.89408357	      0.00000000	      0.00000000	     47.38117040	     -7.51247932	    -11.09745885	     36.14773860	      0.63089706	     -3.09912560	      0.00000000	      0.00000000
    122.15111100	    -17.50873717	      0.22835817	     -2.81155688	      0.04581903	      1.22377394	      0.26408432	     88.93131903	     -2.03093327	      2.52796956	    117.96636546	      2.05890148	     16.90358656	      0.00000000	      0.00000000	     46.50277603	     -7.64590921	    -10.91563132	     36.15107075	      0.63095521	     -3.16213944	      0.00000000	      0.00000000
    122.16000000	    -17.67745313	      0.18275961	     -2.88908308	      0.04587244	      1.22392787	      0.26416870	     90.19499623	     -2.02598344	      2.40198974	    117.90784271	      2.05788007	     17.43369872	      0.00000000	      0.00000000	     45.94650576	     -7.68344332	    -10.78527450	     36.09774048	      0.63002442	     -3.54804710	      0.00000000	      0.00000000
    122.16888900	    -17.52363884	      0.14270901	     -2.94750795	      0.04568358	      1.22443760	      0.26415676	     91.05356897	     -2.07812258	      2.26518337	    117.66076421	      2.05356774	     17.46794787	      0.00000000	      0.00000000	     45.19183631	     -7.69605197	    -10.60300668	     36.36790212	      0.63473963	     -3.58982281	      0.00000000	      0.00000000
    122.17777800	    -17.39753399	      0.17594489	     -3.01465314	      0.04554245	      1.22496827	      0.26421032	     91.83856472	     -2.11973099	      2.19956745	    117.21487961	      2.04578558	     17.54567260	      0.00000000	      0.00000000	     44.55491132	     -7.66626861	    -10.42535110	     36.84877883	      0.64313252	     -3.59200195	      0.00000000	      0.00000000
    122.18666700	    -17.71702482	     -0.11931628	     -3.02766688	      0.04539175	      1.22447967	      0.26420424	     92.93119283	     -2.16790555	      1.71656584	    116.63332603	      2.03563556	     17.81189965	      0.00000000	      0.00000000	     44.75995048	     -7.95142199	     -9.89397569	     38.14751944	      0.66579982	     -2.53378022	      0.00000000	      0.00000000
    122.19555600	    -17.59186674	     -0.04632476	     -3.06548783	      0.04517410	      1.22482372	      0.26428017	     93.51754391	     -2.25276829	      1.64821676	    115.90097101	      2.02285355	     17.77815993	      0.00000000	      0.00000000	     44.41673306	     -7.91640827	     -9.68485410	     39.26227768	      0.68525602	     -2.22390774	      0.00000000	      0.00000000
    122.20444400	    -17.73622327	     -0.25950755	     -3.05167789	      0.04496823	      1.22483622	      0.26406470	     94.15620560	     -2.39418980	      1.21100194	    114.89247142	      2.00525191	     17.62240591	      0.00000000	      0.00000000	     44.56317666	     -8.07433283	     -9.09246586	     40.79331669	      0.71197769	     -0.92876696	      0.00000000	      0.00000000
    122.21333300	    -17.71804044	     -0.27466792	     -3.08163736	      0.04472482	      1.22509312	      0.26403635	     94.54018941	     -2.49574155	      0.99286159	    113.76951468	      1.98565262	     17.44956686	      0.00000000	      0.00000000	     44.58348822	     -8.12034113	     -8.71960510	     42.42164612	      0.74039740	     -0.05623643	      0.00000000	      0.00000000
    122.22222200	    -17.65015008	     -0.21805340	     -3.09005403	      0.04442239	      1.22533791	      0.26404911	     94.76484395	     -2.61952748	      0.83780877	    112.50881962	      1.96364934	     17.24542567	      0.00000000	      0.00000000	     44.66173182	     -8.10900664	     -8.39080448	     44.24441607	      0.77221074	      0.77191243	      0.00000000	      0.00000000
    122.23111100	    -17.78340969	     -0.39295495	     -3.03529265	      0.04416026	      1.22537628	      0.26374840	     94.96701605	     -2.84291788	      0.37382211	    111.03823643	      1.93798282	     16.91675811	      0.00000000	      0.00000000	     45.11642147	     -8.21878087	     -7.72364555	     46.36130065	      0.80915734	      2.24266375	      0.00000000	      0.00000000
    122.24000000	    -17.78333124	     -0.42002585	     -3.00135246	      0.04383177	      1.22555255	      0.26361924	     94.91846519	     -3.03068735	      0.07723235	    109.43752360	      1.91004511	     16.59428389	      0.00000000	      0.00000000	     45.50097145	     -8.25497092	     -7.23354457	     48.58821952	      0.84802441	      3.36635171	      0.00000000	      0.00000000
